<?xml version="1.0" encoding="UTF-8"?>
<svg xmlns="http://www.w3.org/2000/svg" xmlns:xlink="http://www.w3.org/1999/xlink" width="640pt" height="360pt" viewBox="0 0 640 360" version="1.1">
<g id="surface1">
<path style="fill:none;stroke-width:0.5;stroke-linecap:butt;stroke-linejoin:miter;stroke:rgb(0%,0%,0%);stroke-opacity:1;stroke-miterlimit:10;" d="M 320 180 L 317 180 L 317 183 L 320 183 L 320 186 L 323 186 L 323 183 L 326 183 L 326 186 L 329 186 L 329 183 L 326 183 L 326 180 L 329 180 L 329 177 L 332 177 L 332 180 L 335 180 L 335 177 L 332 177 L 332 174 L 329 174 L 329 177 L 326 177 L 326 174 L 329 174 L 329 171 L 326 171 L 326 168 L 329 168 L 329 165 L 332 165 L 332 168 L 335 168 L 335 165 L 332 165 L 332 162 L 329 162 L 329 165 L 326 165 L 326 162 L 323 162 L 323 165 L 326 165 L 326 168 L 323 168 L 323 171 L 320 171 L 320 168 L 323 168 L 323 165 L 320 165 L 320 162 L 317 162 L 317 165 L 314 165 L 314 162 L 317 162 L 317 159 L 314 159 L 314 156 L 317 156 L 317 153 L 320 153 L 320 156 L 323 156 L 323 153 L 320 153 L 320 150 L 317 150 L 317 153 L 314 153 L 314 150 L 311 150 L 311 153 L 314 153 L 314 156 L 311 156 L 311 159 L 308 159 L 308 156 L 305 156 L 305 159 L 308 159 L 308 162 L 311 162 L 311 159 L 314 159 L 314 162 L 311 162 L 311 165 L 314 165 L 314 168 L 311 168 L 311 171 L 308 171 L 308 168 L 311 168 L 311 165 L 308 165 L 308 162 L 305 162 L 305 165 L 302 165 L 302 162 L 299 162 L 299 165 L 302 165 L 302 168 L 299 168 L 299 171 L 296 171 L 296 168 L 299 168 L 299 165 L 296 165 L 296 162 L 293 162 L 293 165 L 290 165 L 290 162 L 293 162 L 293 159 L 290 159 L 290 156 L 293 156 L 293 153 L 296 153 L 296 156 L 299 156 L 299 153 L 296 153 L 296 150 L 293 150 L 293 153 L 290 153 L 290 150 L 287 150 L 287 153 L 290 153 L 290 156 L 287 156 L 287 159 L 284 159 L 284 156 L 281 156 L 281 159 L 284 159 L 284 162 L 287 162 L 287 159 L 290 159 L 290 162 L 287 162 L 287 165 L 290 165 L 290 168 L 287 168 L 287 171 L 284 171 L 284 168 L 281 168 L 281 171 L 284 171 L 284 174 L 287 174 L 287 171 L 290 171 L 290 174 L 293 174 L 293 171 L 290 171 L 290 168 L 293 168 L 293 165 L 296 165 L 296 168 L 293 168 L 293 171 L 296 171 L 296 174 L 299 174 L 299 171 L 302 171 L 302 174 L 299 174 L 299 177 L 302 177 L 302 180 L 299 180 L 299 183 L 296 183 L 296 180 L 299 180 L 299 177 L 296 177 L 296 174 L 293 174 L 293 177 L 290 177 L 290 174 L 287 174 L 287 177 L 290 177 L 290 180 L 287 180 L 287 183 L 284 183 L 284 180 L 281 180 L 281 183 L 284 183 L 284 186 L 287 186 L 287 183 L 290 183 L 290 186 L 287 186 L 287 189 L 290 189 L 290 192 L 287 192 L 287 195 L 284 195 L 284 192 L 287 192 L 287 189 L 284 189 L 284 186 L 281 186 L 281 189 L 278 189 L 278 186 L 275 186 L 275 189 L 278 189 L 278 192 L 275 192 L 275 195 L 272 195 L 272 192 L 275 192 L 275 189 L 272 189 L 272 186 L 269 186 L 269 189 L 266 189 L 266 186 L 269 186 L 269 183 L 266 183 L 266 180 L 269 180 L 269 177 L 272 177 L 272 180 "/>
</g>
</svg>
